<svg xmlns="http://www.w3.org/2000/svg" viewBox="0 0 407 252" fill="none" aria-label="Motley Fool jester hat">
  <path d="M 38 142 L 40 132 L 42 124 L 44 117 L 46 111 L 48 105 L 50 100 L 52 95 L 54 91 L 56 87 L 58 83 L 60 79 L 62 76 L 64 73 L 66 70 L 68 67 L 70 64 L 72 62 L 74 59 L 76 57 L 78 55 L 80 53 L 82 51 L 84 49 L 86 48 L 88 46 L 90 45 L 92 43 L 94 42 L 96 41 L 98 40 L 100 39 L 102 38 L 104 37 L 106 36 L 108 35 L 110 35 L 112 34 L 114 33 L 116 33 L 118 33 L 120 32 L 122 32 L 124 32 L 126 32 L 128 32 L 130 32 L 132 32 L 134 32 L 136 32 L 138 33 L 140 33 L 142 33 L 144 34 L 146 35 L 148 35 L 150 36 L 152 37 L 154 37 L 156 38 L 158 39 L 160 40 L 162 41 L 164 42 L 166 43 L 168 44 L 170 46 L 172 47 L 174 48 L 176 50 L 178 52 L 180 53 L 182 55 L 184 57 L 186 59 L 188 61 L 190 63 L 192 65 L 194 67 L 196 70 L 198 73 L 200 75 L 202 78 L 204 82 L 206 85 L 208 89 L 208 204 L 206 204 L 204 204 L 202 204 L 200 204 L 198 203 L 196 203 L 194 203 L 192 203 L 190 203 L 188 202 L 186 202 L 184 202 L 182 201 L 180 201 L 178 201 L 176 200 L 174 200 L 172 200 L 170 199 L 168 199 L 166 198 L 164 198 L 162 197 L 160 197 L 158 196 L 156 195 L 154 194 L 152 193 L 150 192 L 148 190 L 146 180 L 144 168 L 142 159 L 140 153 L 138 147 L 136 143 L 134 139 L 132 135 L 130 132 L 128 129 L 126 126 L 124 123 L 122 121 L 120 119 L 118 117 L 116 115 L 114 114 L 112 112 L 110 111 L 108 110 L 106 109 L 104 108 L 102 107 L 100 106 L 98 106 L 96 105 L 94 105 L 92 105 L 90 105 L 88 105 L 86 105 L 84 105 L 82 106 L 80 106 L 78 107 L 76 108 L 74 108 L 72 109 L 70 111 L 68 112 L 66 113 L 64 115 L 62 116 L 60 118 L 58 120 L 56 123 L 54 125 L 52 128 L 50 131 L 48 134 L 46 137 L 44 141 L 42 146 L 40 148 L 38 148 Z" fill="#E91976"></path>
  <path d="M 207 87 L 209 87 L 211 83 L 213 80 L 215 77 L 217 74 L 219 71 L 221 68 L 223 66 L 225 64 L 227 61 L 229 59 L 231 57 L 233 56 L 235 54 L 237 52 L 239 51 L 241 49 L 243 48 L 245 46 L 247 45 L 249 44 L 251 42 L 253 41 L 255 40 L 257 39 L 259 38 L 261 38 L 263 37 L 265 36 L 267 35 L 269 35 L 271 34 L 273 34 L 275 33 L 277 33 L 279 32 L 281 32 L 283 32 L 285 32 L 287 32 L 289 32 L 291 32 L 293 32 L 295 32 L 297 32 L 299 33 L 301 33 L 303 34 L 305 34 L 307 35 L 309 36 L 311 36 L 313 37 L 315 38 L 317 39 L 319 40 L 321 41 L 323 43 L 325 44 L 327 46 L 329 47 L 331 49 L 333 51 L 335 52 L 337 54 L 339 56 L 341 59 L 343 61 L 345 63 L 347 66 L 349 69 L 351 72 L 353 75 L 355 78 L 357 81 L 359 85 L 361 89 L 363 93 L 365 98 L 367 103 L 369 109 L 371 115 L 373 121 L 375 129 L 377 138 L 378 147 L 376 148 L 374 146 L 372 142 L 370 138 L 368 134 L 366 131 L 364 128 L 362 125 L 360 123 L 358 121 L 356 118 L 354 117 L 352 115 L 350 113 L 348 112 L 346 111 L 344 110 L 342 109 L 340 108 L 338 107 L 336 106 L 334 106 L 332 105 L 330 105 L 328 105 L 326 105 L 324 105 L 322 105 L 320 105 L 318 106 L 316 106 L 314 107 L 312 108 L 310 109 L 308 110 L 306 111 L 304 112 L 302 113 L 300 115 L 298 117 L 296 119 L 294 121 L 292 123 L 290 126 L 288 128 L 286 131 L 284 135 L 282 138 L 280 142 L 278 147 L 276 152 L 274 158 L 272 166 L 270 178 L 268 190 L 266 192 L 264 193 L 262 194 L 260 195 L 258 196 L 256 196 L 254 197 L 252 198 L 250 198 L 248 199 L 246 199 L 244 200 L 242 200 L 240 200 L 238 201 L 236 201 L 234 201 L 232 202 L 230 202 L 228 202 L 226 203 L 224 203 L 222 203 L 220 203 L 218 203 L 216 203 L 214 204 L 212 204 L 210 204 L 208 204 Z" fill="#7F4CAF"></path>
  <circle cx="37" cy="176" r="15" fill="#FCB426"></circle>
  <circle cx="377" cy="176" r="15" fill="#FCB426"></circle>
</svg>